<svg width="64" height="64" viewBox="0 0 64 64" fill="none" xmlns="http://www.w3.org/2000/svg">
  <rect width="64" height="64" rx="16" fill="#10B981"/>
  <path d="M42 22H22C19.7909 22 18 23.7909 18 26V46C18 48.2091 19.7909 50 22 50H34" stroke="white" stroke-width="4" stroke-linecap="round" stroke-linejoin="round"/>
  <path d="M26 32H34" stroke="white" stroke-width="4" stroke-linecap="round" stroke-linejoin="round"/>
  <path d="M26 40H30" stroke="white" stroke-width="4" stroke-linecap="round" stroke-linejoin="round"/>
  <path d="M48.2619 32.25L38.0119 42.5C37.6369 42.875 37.1369 43.125 36.6369 43.125L33.8869 43.625C33.2619 43.75 32.6369 43.25 32.7619 42.625L33.2619 39.875C33.3869 39.375 33.6369 38.875 34.0119 38.5L44.2619 28.25C45.3869 27.125 47.1369 27.125 48.2619 28.25C49.3869 29.375 49.3869 31.125 48.2619 32.25Z" fill="white"/>
</svg>